{
  "accessors": [
    {
      "bufferView": 2,
      "componentType": 5126,
      "count": 19833,
      "max": [
        3.8172640800476074,
        2.798198938369751,
        5.2415971755981445
      ],
      "min": [
        -3.8171989917755127,
        -1.9194159507751465,
        -6.332398891448975
      ],
      "type": "VEC3"
    },
    {
      "bufferView": 2,
      "byteOffset": 237996,
      "componentType": 5126,
      "count": 19833,
      "max": [
        1.0,
        1.0,
        1.0
      ],
      "min": [
        -1.0,
        -1.0,
        -0.9999964833259583
      ],
      "type": "VEC3"
    },
    {
      "bufferView": 3,
      "componentType": 5126,
      "count": 19833,
      "max": [
        0.9999998807907104,
        0.9999544024467468,
        0.9999630451202393,
        1.0
      ],
      "min": [
        -0.9999998807907104,
        -0.999923825263977,
        -0.9999998807907104,
        -1.0
      ],
      "type": "VEC4"
    },
    {
      "bufferView": 1,
      "componentType": 5126,
      "count": 19833,
      "max": [
        1.0,
        0.9931489825248718
      ],
      "min": [
        0.0,
        0.0
      ],
      "type": "VEC2"
    },
    {
      "bufferView": 0,
      "componentType": 5125,
      "count": 113016,
      "type": "SCALAR"
    }
  ],
  "asset": {
    "extras": {
      "author": "anikatkar (https://sketchfab.com/anikatkar23)",
      "license": "CC-BY-4.0 (http://creativecommons.org/licenses/by/4.0/)",
      "source": "https://sketchfab.com/3d-models/ant-daff0fd5908d4085a193a6fc126f597e",
      "title": "ANT"
    },
    "generator": "Sketchfab-14.23.0",
    "version": "2.0"
  },
  "bufferViews": [
    {
      "buffer": 0,
      "byteLength": 452064,
      "name": "floatBufferViews",
      "target": 34963
    },
    {
      "buffer": 0,
      "byteLength": 158664,
      "byteOffset": 452064,
      "byteStride": 8,
      "name": "floatBufferViews",
      "target": 34962
    },
    {
      "buffer": 0,
      "byteLength": 475992,
      "byteOffset": 610728,
      "byteStride": 12,
      "name": "floatBufferViews",
      "target": 34962
    },
    {
      "buffer": 0,
      "byteLength": 317328,
      "byteOffset": 1086720,
      "byteStride": 16,
      "name": "floatBufferViews",
      "target": 34962
    }
  ],
  "buffers": [
    {
      "byteLength": 1404048,
      "uri": "scene.bin"
    }
  ],
  "images": [
    {
      "uri": "textures/lambert1_baseColor.jpeg"
    },
    {
      "uri": "textures/lambert1_metallicRoughness.png"
    },
    {
      "uri": "textures/lambert1_normal.png"
    }
  ],
  "materials": [
    {
      "doubleSided": true,
      "name": "lambert1",
      "normalTexture": {
        "index": 2
      },
      "occlusionTexture": {
        "index": 1
      },
      "pbrMetallicRoughness": {
        "baseColorTexture": {
          "index": 0
        },
        "metallicRoughnessTexture": {
          "index": 1
        }
      }
    }
  ],
  "meshes": [
    {
      "name": "defaultMaterial",
      "primitives": [
        {
          "attributes": {
            "NORMAL": 1,
            "POSITION": 0,
            "TANGENT": 2,
            "TEXCOORD_0": 3
          },
          "indices": 4,
          "material": 0,
          "mode": 4
        }
      ]
    }
  ],
  "nodes": [
    {
      "children": [
        1
      ],
      "matrix": [
        1.0,
        0.0,
        0.0,
        0.0,
        0.0,
        2.220446049250313e-16,
        -1.0,
        0.0,
        0.0,
        1.0,
        2.220446049250313e-16,
        0.0,
        0.0,
        0.0,
        0.0,
        1.0
      ],
      "name": "Sketchfab_model"
    },
    {
      "children": [
        2
      ],
      "matrix": [
        1.0,
        0.0,
        0.0,
        0.0,
        0.0,
        -4.371139006309477e-08,
        0.999999999999999,
        0.0,
        0.0,
        -0.999999999999999,
        -4.371139006309477e-08,
        0.0,
        0.0,
        0.0,
        0.0,
        1.0
      ],
      "name": "Collada visual scene group"
    },
    {
      "children": [
        3
      ],
      "name": "mouth"
    },
    {
      "mesh": 0,
      "name": "defaultMaterial"
    }
  ],
  "samplers": [
    {
      "magFilter": 9729,
      "minFilter": 9987,
      "wrapS": 10497,
      "wrapT": 10497
    }
  ],
  "scene": 0,
  "scenes": [
    {
      "name": "Sketchfab_Scene",
      "nodes": [
        0
      ]
    }
  ],
  "textures": [
    {
      "sampler": 0,
      "source": 0
    },
    {
      "sampler": 0,
      "source": 1
    },
    {
      "sampler": 0,
      "source": 2
    }
  ]
}
